{"title":"Torment 2013 HDRip x264 Pimp4003","uid":10377770,"size":1183845816,"categoryP":"video","categoryS":"movies","magnet":"?xt=urn:btih:7ca057a113c64487c53e9c9444286bcac46ec1c6&amp;dn=Torment+2013+HDRip+x264+Pimp4003&amp;tr=udp%3A%2F%2Ftracker.openbittorrent.com%3A80&amp;tr=udp%3A%2F%2Fopen.demonii.com%3A1337&amp;tr=udp%3A%2F%2Ftracker.coppersurfer.tk%3A6969&amp;tr=udp%3A%2F%2Fexodus.desync.com%3A6969","seeders":1,"leechers":0,"uploader":".BONE.","files":2,"time":1403025786,"description":"Torment 2013 HDRip x264 Pimp4003\n &lt;a href=&quot;\nhttp://www.imdb.com/title/tt2900822/&quot; rel=&quot;nofollow&quot; target=&quot;_NEW&quot;&gt;\nhttp://www.imdb.com/title/tt2900822/&lt;/a&gt;\n\nNewlyweds Cory and Sarah Morgan take Cory's 7-year old son Liam up to the country for some much needed family time. When it appears as if Liam has run away, psychological suspense becomes ... See full summary Â»\n\nDirector: Jordan Barker\nWriters: Michael Foster, Thomas Pound\nStars: Peter DaCunha, Katharine Isabelle, Stephen McHattie | See full cast and crew Â»\n\nVideo\nID : 1\nFormat : AVC\nFormat/Info : Advanced Video Codec\nFormat profile : &lt;a class=&quot;__cf_email__&quot; href=&quot;/cdn-cgi/l/email-protection&quot; data-cfemail=&quot;0e466769664e423a203f&quot;&gt;[email&amp;#160;protected]&lt;/a&gt;&lt;script cf-hash='f9e31' type=&quot;text/javascript&quot;&gt;\n/* &lt;![CDATA[ */!function(){try{var t=&quot;currentScript&quot;in document?document.currentScript:function(){for(var t=document.getElementsByTagName(&quot;script&quot;),e=t.length;e--;)if(t[e].getAttribute(&quot;cf-hash&quot;))return t[e]}();if(t&amp;&amp;t.previousSibling){var e,r,n,i,c=t.previousSibling,a=c.getAttribute(&quot;data-cfemail&quot;);if(a){for(e=&quot;&quot;,r=parseInt(a.substr(0,2),16),n=2;a.length-n;n+=2)i=parseInt(a.substr(n,2),16)^r,e+=String.fromCharCode(i);e=document.createTextNode(e),c.parentNode.replaceChild(e,c)}}}catch(u){}}();/* ]]&gt; */&lt;/script&gt;\nFormat settings, CABAC : Yes\nFormat settings, ReFrames : 4 frames\nCodec ID : avc1\nCodec ID/Info : Advanced Video Coding\nDuration : 1h 20mn\nBit rate : 1 871 Kbps\nMaximum bit rate : 16.5 Mbps\nWidth : 720 pixels\nHeight : 304 pixels\nDisplay aspect ratio : 2.35:1\nFrame rate mode : Constant\nFrame rate : 23.976 fps\nColor space : YUV\nChroma subsampling : 4:2:0\nBit depth : 8 bits\nScan type : Progressive\nBits/(Pixel*Frame) : 0.357\nStream size : 1.03 GiB (93%)\n\nAudio\nID : 2\nFormat : AAC\nFormat/Info : Advanced Audio Codec\nFormat profile : LC\nCodec ID : 40\nDuration : 1h 20mn\nBit rate mode : Variable\nBit rate : 132 Kbps\nMaximum bit rate : 142 Kbps\nChannel(s) : 2 channels\nChannel positions : Front: L R\nSampling rate : 48.0 KHz\nCompression mode : Lossy\nStream size : 76.9 MiB (7%)\nEncoded date : UTC 2014-06-16 10:36:45\nTagged date : UTC 2014-06-16 11:02:47","torrent":{"xt":"urn:btih:7ca057a113c64487c53e9c9444286bcac46ec1c6","amp;dn":"Torment+2013+HDRip+x264+Pimp4003","amp;tr":["udp%3A%2F%2Ftracker.openbittorrent.com%3A80","udp%3A%2F%2Fopen.demonii.com%3A1337","udp%3A%2F%2Ftracker.coppersurfer.tk%3A6969","udp%3A%2F%2Fexodus.desync.com%3A6969"],"infoHash":"7ca057a113c64487c53e9c9444286bcac46ec1c6","infoHashBuffer":{"type":"Buffer","data":[124,160,87,161,19,198,68,135,197,62,156,148,68,40,107,202,196,110,193,198]},"announce":[],"urlList":[]}}